# xmcd
# 
# Track frame offsets:
#     150
#     18185
#     50557
#     75700
#     96910
#     116875
#     155042
#     177590
# 
# Disc length: 2706
# 
# Revision: 7
# Processed by: cddbd v1.5.2PL0 Copyright (c) Steve Scherf et al.
# Submitted via: fre:ac v1.0.31
# 
DISCID=670a9008
DTITLE=Clapton, Eric - Just One Night [CD1] [Remastered]
DYEAR=1980
DGENRE=Blues
TTITLE0=Tulsa Time (Live)
TTITLE1=Early In The Morning (Live)
TTITLE2=Lay Down Sally (Live)
TTITLE3=Wonderful Tonight (Live)
TTITLE4=If I Don't Be There By Morning (Live)
TTITLE5=Worried Life Blues (Live)
TTITLE6=All Our Past Times (Live)
TTITLE7=After Midnight (Live)
EXTD=
EXTT0=
EXTT1=
EXTT2=
EXTT3=
EXTT4=
EXTT5=
EXTT6=
EXTT7=
PLAYORDER=
